<svg xmlns="http://www.w3.org/2000/svg" viewBox="0 0 200 200">
  <!-- 間違い探し問題 - バグ発見のアイコン -->
  <defs>
    <linearGradient id="bugGrad" x1="0%" y1="0%" x2="100%" y2="100%">
      <stop offset="0%" style="stop-color:#EF4444;stop-opacity:1" />
      <stop offset="100%" style="stop-color:#DC2626;stop-opacity:1" />
    </linearGradient>
  </defs>

  <!-- 虫（バグ）の体 -->
  <ellipse cx="100" cy="100" rx="30" ry="40" fill="url(#bugGrad)" stroke="#991B1B" stroke-width="2"/>

  <!-- 虫の頭 -->
  <circle cx="100" cy="70" r="20" fill="url(#bugGrad)" stroke="#991B1B" stroke-width="2"/>

  <!-- 目 -->
  <circle cx="90" cy="65" r="5" fill="#FFFFFF"/>
  <circle cx="110" cy="65" r="5" fill="#FFFFFF"/>
  <circle cx="92" cy="65" r="3" fill="#000000"/>
  <circle cx="112" cy="65" r="3" fill="#000000"/>

  <!-- 触角 -->
  <path d="M 85 60 Q 75 50 70 40" stroke="#991B1B" stroke-width="3" fill="none" stroke-linecap="round"/>
  <path d="M 115 60 Q 125 50 130 40" stroke="#991B1B" stroke-width="3" fill="none" stroke-linecap="round"/>
  <circle cx="70" cy="40" r="4" fill="#991B1B"/>
  <circle cx="130" cy="40" r="4" fill="#991B1B"/>

  <!-- 足 -->
  <path d="M 75 90 L 55 90" stroke="#991B1B" stroke-width="3" stroke-linecap="round"/>
  <path d="M 75 105 L 50 115" stroke="#991B1B" stroke-width="3" stroke-linecap="round"/>
  <path d="M 75 120 L 55 130" stroke="#991B1B" stroke-width="3" stroke-linecap="round"/>
  <path d="M 125 90 L 145 90" stroke="#991B1B" stroke-width="3" stroke-linecap="round"/>
  <path d="M 125 105 L 150 115" stroke="#991B1B" stroke-width="3" stroke-linecap="round"/>
  <path d="M 125 120 L 145 130" stroke="#991B1B" stroke-width="3" stroke-linecap="round"/>

  <!-- 虫眼鏡 -->
  <circle cx="140" cy="140" r="25" fill="none" stroke="#1F2937" stroke-width="4"/>
  <circle cx="140" cy="140" r="20" fill="#DBEAFE" opacity="0.5"/>
  <path d="M 158 158 L 175 175" stroke="#1F2937" stroke-width="6" stroke-linecap="round"/>
</svg>
