<svg xmlns="http://www.w3.org/2000/svg" viewBox="0 0 200 200">
  <!-- 学生アイコン - 笑顔の学生 -->
  <defs>
    <linearGradient id="studentGrad" x1="0%" y1="0%" x2="100%" y2="100%">
      <stop offset="0%" style="stop-color:#FCD34D;stop-opacity:1" />
      <stop offset="100%" style="stop-color:#F59E0B;stop-opacity:1" />
    </linearGradient>
  </defs>

  <!-- 顔 -->
  <circle cx="100" cy="80" r="45" fill="url(#studentGrad)" stroke="#D97706" stroke-width="3"/>

  <!-- 目 -->
  <circle cx="85" cy="75" r="6" fill="#1F2937"/>
  <circle cx="115" cy="75" r="6" fill="#1F2937"/>

  <!-- 笑顔 -->
  <path d="M 75 90 Q 100 105 125 90" stroke="#1F2937" stroke-width="4" fill="none" stroke-linecap="round"/>

  <!-- 体 -->
  <path d="M 60 125 L 60 170 L 90 170 L 90 140 L 110 140 L 110 170 L 140 170 L 140 125 Q 100 135 60 125 Z"
        fill="#3B82F6" stroke="#1D4ED8" stroke-width="2"/>

  <!-- 手 -->
  <ellipse cx="50" cy="145" rx="8" ry="20" fill="url(#studentGrad)" stroke="#D97706" stroke-width="2"/>
  <ellipse cx="150" cy="145" rx="8" ry="20" fill="url(#studentGrad)" stroke="#D97706" stroke-width="2"/>

  <!-- ノートパソコン -->
  <rect x="75" y="130" width="50" height="35" rx="3" fill="#374151" stroke="#1F2937" stroke-width="2"/>
  <rect x="80" y="135" width="40" height="25" fill="#1E40AF"/>
  <rect x="82" y="138" width="15" height="3" rx="1" fill="#60A5FA"/>
  <rect x="85" y="145" width="12" height="3" rx="1" fill="#93C5FD"/>
</svg>
